<svg width="20" height="20" viewBox="0 0 20 20" fill="none" xmlns="http://www.w3.org/2000/svg">
<g id="Group">
<path id="Vector" d="M10 19.75C8.07164 19.75 6.18657 19.1782 4.58319 18.1068C2.97982 17.0355 1.73013 15.5127 0.992179 13.7312C0.254225 11.9496 0.061142 9.98919 0.437348 8.09787C0.813554 6.20656 1.74215 4.46928 3.10571 3.10571C4.46928 1.74215 6.20656 0.813554 8.09787 0.437348C9.98919 0.061142 11.9496 0.254225 13.7312 0.992179C15.5127 1.73013 17.0355 2.97982 18.1068 4.58319C19.1782 6.18657 19.75 8.07164 19.75 10C19.747 12.585 18.7188 15.0632 16.891 16.891C15.0632 18.7188 12.585 19.747 10 19.75ZM10 1.75C8.36831 1.75 6.77326 2.23386 5.41655 3.14038C4.05984 4.0469 3.00242 5.33538 2.378 6.84287C1.75358 8.35036 1.5902 10.0092 1.90853 11.6095C2.22685 13.2098 3.01259 14.6799 4.16637 15.8336C5.32016 16.9874 6.79017 17.7732 8.39051 18.0915C9.99085 18.4098 11.6497 18.2464 13.1571 17.622C14.6646 16.9976 15.9531 15.9402 16.8596 14.5835C17.7661 13.2268 18.25 11.6317 18.25 10C18.2474 7.81276 17.3774 5.71584 15.8308 4.16922C14.2842 2.62261 12.1872 1.75258 10 1.75Z" fill="#333333"/>
<path id="Vector_2" d="M10 13C9.80109 13 9.61032 12.921 9.46967 12.7803C9.32902 12.6397 9.25 12.4489 9.25 12.25C9.29811 11.7785 9.44224 11.3219 9.67352 10.9082C9.90479 10.4946 10.2183 10.1327 10.5947 9.84475C11.0605 9.379 11.5 8.9395 11.5 8.5C11.5 8.10218 11.342 7.72064 11.0607 7.43934C10.7794 7.15804 10.3978 7 10 7C9.60218 7 9.22064 7.15804 8.93934 7.43934C8.65804 7.72064 8.5 8.10218 8.5 8.5C8.5 8.69891 8.42098 8.88968 8.28033 9.03033C8.13968 9.17098 7.94891 9.25 7.75 9.25C7.55109 9.25 7.36032 9.17098 7.21967 9.03033C7.07902 8.88968 7 8.69891 7 8.5C7 7.70435 7.31607 6.94129 7.87868 6.37868C8.44129 5.81607 9.20435 5.5 10 5.5C10.7956 5.5 11.5587 5.81607 12.1213 6.37868C12.6839 6.94129 13 7.70435 13 8.5C12.9519 8.97147 12.8078 9.4281 12.5765 9.84176C12.3452 10.2554 12.0317 10.6173 11.6553 10.9053C11.1895 11.371 10.75 11.8105 10.75 12.25C10.75 12.4489 10.671 12.6397 10.5303 12.7803C10.3897 12.921 10.1989 13 10 13Z" fill="#333333"/>
<path id="Vector_3" d="M10 15.25C10.4142 15.25 10.75 14.9142 10.75 14.5C10.75 14.0858 10.4142 13.75 10 13.75C9.58579 13.75 9.25 14.0858 9.25 14.5C9.25 14.9142 9.58579 15.25 10 15.25Z" fill="#333333"/>
</g>
</svg>
