<svg width="200" height="190" viewBox="0 0 200 190" fill="none" xmlns="http://www.w3.org/2000/svg">
<path d="M130.789 74.5123C130.803 80.1711 129.596 85.7666 127.251 90.918C124.906 96.0693 121.477 100.656 117.198 104.365C114.393 106.827 116.314 111.435 120.049 111.064C122.546 110.82 125.017 110.353 127.431 109.67C133.912 107.845 139.804 104.362 144.525 99.5665C149.245 94.7708 152.631 88.8278 154.348 82.3251C155.98 76.4207 156.224 70.2194 155.06 64.2054C153.895 58.1914 151.355 52.5278 147.636 47.6565C143.917 42.7854 139.121 38.8386 133.622 36.1246C128.124 33.4105 122.071 32.0028 115.937 32.011C114.313 32.0098 112.69 32.1028 111.077 32.2898C107.384 32.7542 106.449 37.6825 109.728 39.4521C122.291 46.1966 130.798 59.3559 130.798 74.5123H130.789ZM80.9507 86.1851C75.272 86.2029 69.6556 85.0044 64.4802 82.6701C59.305 80.336 54.6911 76.9207 50.9498 72.6544C48.4753 69.8674 43.8474 71.7717 44.2241 75.4878C44.467 77.9741 44.9341 80.4335 45.6194 82.8361C49.3127 95.9488 59.871 106.182 73.0946 109.619C99.7324 116.549 123.654 96.7385 123.654 71.3956C123.654 69.7699 123.561 68.1441 123.375 66.5648C122.91 62.886 117.956 61.9571 116.179 65.2178C112.75 71.5635 107.664 76.8634 101.462 80.555C95.2589 84.2467 88.1712 86.1921 80.9507 86.1851ZM69.2107 36.5723C69.1979 30.9129 70.4061 25.3169 72.7528 20.1655C75.0998 15.0141 78.5302 10.428 82.8111 6.71923C85.6158 4.25275 83.6948 -0.350392 79.9599 0.0212039C77.4496 0.266789 74.9637 0.717307 72.5271 1.36824C66.0517 3.20282 60.1657 6.68865 55.4481 11.4831C50.7302 16.2775 47.3431 22.2154 45.6194 28.7131C43.987 34.6175 43.7433 40.8188 44.9076 46.8328C46.072 52.8468 48.6126 58.5104 52.3314 63.3818C56.0501 68.2529 60.8461 72.1997 66.3448 74.9136C71.8435 77.6277 77.8961 79.0355 84.0297 79.0273C85.667 79.0273 87.3043 78.9343 88.8902 78.7485C92.5835 78.284 93.5184 73.3511 90.2392 71.5859C83.8866 68.201 78.5746 63.1549 74.8715 56.9876C71.1684 50.8203 69.2087 43.7637 69.2107 36.5723ZM119.073 24.8995C124.751 24.8818 130.367 26.0804 135.543 28.4145C140.718 30.7487 145.332 34.164 149.073 38.4303C151.538 41.2173 156.171 39.3129 155.794 35.5969C155.552 33.1089 155.085 30.648 154.399 28.244C150.701 15.1312 140.143 4.90306 126.915 1.46114C100.323 -5.51558 76.4017 14.2952 76.4017 39.638C76.4017 41.2637 76.4946 42.8896 76.6807 44.4734C77.1458 48.1476 82.1133 49.0766 83.8856 45.8205C87.3108 39.4863 92.3902 34.197 98.584 30.5143C104.778 26.8316 111.855 24.8928 119.063 24.9042L119.073 24.8995Z" fill="#35CC33"/>
<path d="M17.5732 157.16L11.4644 146.06H9.74893V157.16H2.59412V127.756H14.6025C16.9176 127.756 18.8842 128.161 20.5021 128.97C22.1478 129.78 23.3752 130.897 24.1841 132.321C24.9929 133.718 25.3975 135.282 25.3975 137.013C25.3975 138.968 24.8396 140.713 23.7238 142.249C22.636 143.785 21.018 144.874 18.8703 145.516L25.6485 157.16H17.5732ZM9.74893 140.992H14.1841C15.4951 140.992 16.4714 140.671 17.1129 140.029C17.7824 139.386 18.1171 138.479 18.1171 137.306C18.1171 136.189 17.7824 135.309 17.1129 134.667C16.4714 134.025 15.4951 133.704 14.1841 133.704H9.74893V140.992ZM48.5499 145.097C48.5499 145.767 48.5081 146.465 48.4244 147.191H32.2319C32.3436 148.644 32.8038 149.76 33.6127 150.542C34.4495 151.296 35.4676 151.673 36.6671 151.673C38.4524 151.673 39.6935 150.919 40.3909 149.411H48.006C47.6155 150.947 46.9042 152.33 45.8721 153.558C44.8679 154.787 43.5988 155.75 42.0646 156.448C40.5303 157.147 38.8149 157.496 36.9181 157.496C34.6308 157.496 32.5946 157.007 30.8093 156.03C29.0241 155.052 27.6294 153.656 26.6252 151.841C25.6211 150.026 25.119 147.903 25.119 145.474C25.119 143.045 25.6072 140.922 26.5834 139.107C27.5876 137.292 28.9822 135.896 30.7675 134.918C32.5528 133.941 34.603 133.452 36.9181 133.452C39.1775 133.452 41.1859 133.927 42.9432 134.877C44.7006 135.826 46.0674 137.18 47.0437 138.94C48.0478 140.699 48.5499 142.751 48.5499 145.097ZM41.2278 143.212C41.2278 141.983 40.8093 141.006 39.9725 140.28C39.1357 139.554 38.0897 139.191 36.8344 139.191C35.6349 139.191 34.6169 139.54 33.7801 140.238C32.9712 140.936 32.4691 141.927 32.2738 143.212H41.2278ZM47.5546 145.474C47.5546 143.045 48.0426 140.922 49.0191 139.107C50.0232 137.292 51.404 135.896 53.1613 134.918C54.9464 133.941 56.9827 133.452 59.2701 133.452C62.199 133.452 64.6396 134.22 66.5923 135.756C68.5727 137.292 69.8698 139.456 70.4835 142.249H62.8684C62.2267 140.461 60.9856 139.568 59.1446 139.568C57.8334 139.568 56.7874 140.084 56.0065 141.118C55.2254 142.123 54.8349 143.575 54.8349 145.474C54.8349 147.373 55.2254 148.839 56.0065 149.872C56.7874 150.877 57.8334 151.38 59.1446 151.38C60.9856 151.38 62.2267 150.487 62.8684 148.699H70.4835C69.8698 151.436 68.5727 153.586 66.5923 155.15C64.6117 156.714 62.171 157.496 59.2701 157.496C56.9827 157.496 54.9464 157.007 53.1613 156.03C51.404 155.052 50.0232 153.656 49.0191 151.841C48.0426 150.026 47.5546 147.903 47.5546 145.474ZM94.8127 133.787L80.1683 168.261H72.4696L77.8252 156.365L68.3273 133.787H76.319L81.7165 148.406L87.0721 133.787H94.8127Z" fill="#35CC33"/>
<path d="M115.182 127.756V133.494H107.4V157.161H100.245V133.494H92.4628V127.756H115.182ZM129.777 133.536C132.455 133.536 134.603 134.43 136.221 136.217C137.839 137.976 138.648 140.406 138.648 143.505V157.161H131.535V144.469C131.535 142.905 131.13 141.69 130.321 140.825C129.512 139.959 128.425 139.526 127.058 139.526C125.691 139.526 124.603 139.959 123.794 140.825C122.985 141.69 122.581 142.905 122.581 144.469V157.161H115.426V126.164H122.581V136.929C123.306 135.896 124.296 135.072 125.551 134.458C126.807 133.843 128.215 133.536 129.777 133.536ZM143.871 131.358C142.615 131.358 141.583 130.995 140.774 130.269C139.993 129.515 139.603 128.593 139.603 127.504C139.603 126.387 139.993 125.466 140.774 124.74C141.583 123.986 142.615 123.609 143.871 123.609C145.098 123.609 146.102 123.986 146.883 124.74C147.692 125.466 148.097 126.387 148.097 127.504C148.097 128.593 147.692 129.515 146.883 130.269C146.102 130.995 145.098 131.358 143.871 131.358ZM147.427 133.787V157.161H140.272V133.787H147.427ZM163.491 133.536C166.224 133.536 168.4 134.43 170.018 136.217C171.664 137.976 172.487 140.406 172.487 143.505V157.161H165.374V144.469C165.374 142.905 164.969 141.69 164.16 140.825C163.351 139.959 162.263 139.526 160.897 139.526C159.53 139.526 158.442 139.959 157.633 140.825C156.824 141.69 156.42 142.905 156.42 144.469V157.161H149.265V133.787H156.42V136.887C157.145 135.854 158.121 135.044 159.348 134.458C160.576 133.843 161.957 133.536 163.491 133.536ZM182.981 133.452C184.628 133.452 186.064 133.787 187.29 134.458C188.546 135.128 189.508 136.008 190.177 137.097V133.787H197.332V157.119C197.332 159.269 196.9 161.21 196.035 162.941C195.198 164.7 193.901 166.096 192.144 167.13C190.415 168.163 188.253 168.679 185.659 168.679C182.201 168.679 179.398 167.855 177.249 166.208C175.101 164.588 173.874 162.382 173.567 159.59H180.638C180.862 160.483 181.391 161.182 182.228 161.684C183.064 162.215 184.097 162.48 185.324 162.48C186.803 162.48 187.975 162.047 188.839 161.182C189.732 160.344 190.177 158.99 190.177 157.119V153.81C189.481 154.899 188.519 155.792 187.29 156.49C186.064 157.161 184.628 157.496 182.981 157.496C181.056 157.496 179.314 157.007 177.751 156.03C176.189 155.024 174.947 153.614 174.027 151.799C173.135 149.956 172.688 147.834 172.688 145.432C172.688 143.031 173.135 140.922 174.027 139.107C174.947 137.292 176.189 135.896 177.751 134.918C179.314 133.941 181.056 133.452 182.981 133.452ZM190.177 145.474C190.177 143.687 189.675 142.277 188.671 141.243C187.695 140.21 186.495 139.694 185.073 139.694C183.65 139.694 182.437 140.21 181.433 141.243C180.457 142.249 179.968 143.645 179.968 145.432C179.968 147.219 180.457 148.644 181.433 149.705C182.437 150.738 183.65 151.254 185.073 151.254C186.495 151.254 187.695 150.738 188.671 149.705C189.675 148.671 190.177 147.261 190.177 145.474Z" fill="#FFCD29"/>
<path d="M36.9734 185.644L35.1953 182.588H34.0171V185.644H33.0424V178.169H35.4524C36.0166 178.169 36.4914 178.267 36.877 178.459C37.2698 178.652 37.5625 178.913 37.7553 179.242C37.9481 179.57 38.0445 179.945 38.0445 180.368C38.0445 180.882 37.8946 181.336 37.5947 181.73C37.3019 182.124 36.8591 182.383 36.2665 182.512L38.1409 185.644H36.9734ZM34.0171 181.805H35.4524C35.9808 181.805 36.3771 181.676 36.6414 181.418C36.9056 181.155 37.0377 180.803 37.0377 180.368C37.0377 179.925 36.9056 179.582 36.6414 179.339C36.3843 179.096 35.988 178.974 35.4524 178.974H34.0171V181.805ZM45.3968 182.48C45.3968 182.666 45.3861 182.862 45.3647 183.07H40.6732C40.7088 183.65 40.9051 184.104 41.2623 184.432C41.6265 184.754 42.0656 184.915 42.5798 184.915C43.001 184.915 43.351 184.818 43.6295 184.625C43.915 184.426 44.115 184.161 44.2293 183.831H45.279C45.1219 184.396 44.8077 184.858 44.3364 185.215C43.8651 185.565 43.2795 185.741 42.5798 185.741C42.0228 185.741 41.5229 185.615 41.0802 185.366C40.6445 185.114 40.3018 184.761 40.0519 184.303C39.8019 183.839 39.677 183.303 39.677 182.695C39.677 182.087 39.7983 181.554 40.0412 181.097C40.2839 180.639 40.6231 180.289 41.0588 180.046C41.5014 179.796 42.0084 179.671 42.5798 179.671C43.1368 179.671 43.6295 179.793 44.0579 180.036C44.4864 180.279 44.8147 180.614 45.0434 181.043C45.279 181.465 45.3968 181.944 45.3968 182.48ZM44.39 182.276C44.39 181.906 44.3078 181.587 44.1436 181.323C43.9793 181.051 43.7543 180.847 43.4688 180.711C43.1903 180.569 42.8797 180.497 42.5369 180.497C42.0442 180.497 41.6228 180.654 41.273 180.969C40.9302 181.282 40.7337 181.72 40.6839 182.276H44.39ZM48.1401 180.85C48.3329 180.515 48.6186 180.235 48.997 180.014C49.3826 179.785 49.829 179.671 50.3359 179.671C50.8573 179.671 51.3286 179.796 51.7498 180.046C52.1783 180.297 52.5138 180.651 52.7567 181.108C52.9995 181.559 53.1209 182.083 53.1209 182.685C53.1209 183.278 52.9995 183.806 52.7567 184.272C52.5138 184.736 52.1783 185.098 51.7498 185.354C51.3286 185.612 50.8573 185.741 50.3359 185.741C49.836 185.741 49.3933 185.629 49.0077 185.408C48.6293 185.18 48.3401 184.897 48.1401 184.561V188.432H47.1654V179.768H48.1401V180.85ZM52.1247 182.685C52.1247 182.241 52.0355 181.856 51.8569 181.525C51.6783 181.197 51.4357 180.947 51.1286 180.775C50.8286 180.604 50.4966 180.518 50.1324 180.518C49.7754 180.518 49.4434 180.607 49.1362 180.787C48.8363 180.957 48.5935 181.212 48.4079 181.547C48.2293 181.876 48.1401 182.259 48.1401 182.695C48.1401 183.139 48.2293 183.528 48.4079 183.864C48.5935 184.193 48.8363 184.446 49.1362 184.625C49.4434 184.796 49.7754 184.883 50.1324 184.883C50.4966 184.883 50.8286 184.796 51.1286 184.625C51.4357 184.446 51.6783 184.193 51.8569 183.864C52.0355 183.528 52.1247 183.134 52.1247 182.685ZM57.4459 185.741C56.8961 185.741 56.3962 185.615 55.9463 185.366C55.5036 185.114 55.1537 184.761 54.8966 184.303C54.6467 183.839 54.5217 183.303 54.5217 182.695C54.5217 182.095 54.6502 181.566 54.9073 181.108C55.1716 180.642 55.5286 180.289 55.9784 180.046C56.4283 179.796 56.9317 179.671 57.4887 179.671C58.0457 179.671 58.5491 179.796 58.999 180.046C59.4489 180.289 59.8024 180.639 60.0594 181.097C60.3237 181.554 60.4557 182.087 60.4557 182.695C60.4557 183.303 60.32 183.839 60.0487 184.303C59.7844 184.761 59.4239 185.114 58.9669 185.366C58.5098 185.615 58.0029 185.741 57.4459 185.741ZM57.4459 184.883C57.7958 184.883 58.1242 184.801 58.4313 184.635C58.7384 184.471 58.9848 184.225 59.1704 183.896C59.3632 183.568 59.4596 183.167 59.4596 182.695C59.4596 182.222 59.3667 181.822 59.1811 181.494C58.9955 181.165 58.7527 180.922 58.4527 180.765C58.1528 180.601 57.828 180.518 57.478 180.518C57.121 180.518 56.7925 180.601 56.4926 180.765C56.1998 180.922 55.9642 181.165 55.7856 181.494C55.607 181.822 55.5178 182.222 55.5178 182.695C55.5178 183.174 55.6035 183.578 55.7749 183.906C55.9535 184.235 56.1891 184.483 56.4819 184.647C56.7746 184.804 57.0959 184.883 57.4459 184.883ZM63.1942 180.721C63.3655 180.386 63.6082 180.125 63.9225 179.939C64.2439 179.753 64.633 179.661 65.0901 179.661V180.668H64.833C63.7404 180.668 63.1942 181.262 63.1942 182.449V185.644H62.2194V179.768H63.1942V180.721ZM67.886 180.572V184.035C67.886 184.322 67.9468 184.525 68.0681 184.647C68.1896 184.761 68.4002 184.818 68.7001 184.818H69.4178V185.644H68.5394C67.9968 185.644 67.5898 185.518 67.3183 185.268C67.047 185.019 66.9113 184.607 66.9113 184.035V180.572H66.1508V179.768H66.9113V178.288H67.886V179.768H69.4178V180.572H67.886ZM72.0877 184.293L70.8881 187.177H70.2347L71.0166 184.293H72.0877ZM76.6598 182.695C76.6598 182.087 76.7811 181.559 77.0239 181.108C77.2668 180.651 77.6024 180.297 78.0308 180.046C78.4665 179.796 78.9627 179.671 79.5197 179.671C80.2409 179.671 80.8337 179.847 81.2978 180.197C81.7691 180.547 82.0797 181.033 82.2296 181.654H81.1799C81.08 181.298 80.8835 181.014 80.5908 180.808C80.3051 180.601 79.9481 180.497 79.5197 180.497C78.9627 180.497 78.5128 180.689 78.1701 181.076C77.8273 181.455 77.6559 181.995 77.6559 182.695C77.6559 183.402 77.8273 183.95 78.1701 184.335C78.5128 184.722 78.9627 184.915 79.5197 184.915C79.9481 184.915 80.3051 184.814 80.5908 184.615C80.8765 184.414 81.0728 184.127 81.1799 183.757H82.2296C82.0725 184.357 81.7583 184.84 81.287 185.205C80.8158 185.562 80.2266 185.741 79.5197 185.741C78.9627 185.741 78.4665 185.615 78.0308 185.366C77.6024 185.114 77.2668 184.761 77.0239 184.303C76.7811 183.846 76.6598 183.31 76.6598 182.695ZM84.987 177.709V185.644H84.0122V177.709H84.987ZM92.4859 182.48C92.4859 182.666 92.4752 182.862 92.4537 183.07H87.7622C87.7978 183.65 87.9943 184.104 88.3513 184.432C88.7155 184.754 89.1547 184.915 89.6688 184.915C90.0901 184.915 90.44 184.818 90.7185 184.625C91.0042 184.426 91.204 184.161 91.3183 183.831H92.368C92.2109 184.396 91.8968 184.858 91.4255 185.215C90.9542 185.565 90.3686 185.741 89.6688 185.741C89.1118 185.741 88.6119 185.615 88.1692 185.366C87.7336 185.114 87.3908 184.761 87.1409 184.303C86.8911 183.839 86.766 183.303 86.766 182.695C86.766 182.087 86.8874 181.554 87.1302 181.097C87.3731 180.639 87.7122 180.289 88.1478 180.046C88.5905 179.796 89.0976 179.671 89.6688 179.671C90.2258 179.671 90.7185 179.793 91.147 180.036C91.5754 180.279 91.904 180.614 92.1324 181.043C92.3681 181.465 92.4859 181.944 92.4859 182.48ZM91.479 182.276C91.479 181.906 91.3968 181.587 91.2327 181.323C91.0685 181.051 90.8435 180.847 90.5578 180.711C90.2794 180.569 89.9687 180.497 89.626 180.497C89.1332 180.497 88.712 180.654 88.362 180.969C88.0193 181.282 87.8229 181.72 87.7729 182.276H91.479ZM93.8902 182.685C93.8902 182.083 94.0117 181.559 94.2544 181.108C94.4973 180.651 94.8293 180.297 95.2506 180.046C95.679 179.796 96.154 179.671 96.6752 179.671C97.1893 179.671 97.6357 179.781 98.0141 180.004C98.3926 180.225 98.6747 180.503 98.8603 180.84V179.768H99.8457V185.644H98.8603V184.55C98.6675 184.893 98.3783 185.18 97.9927 185.408C97.6142 185.629 97.1716 185.741 96.6645 185.741C96.1433 185.741 95.672 185.612 95.2506 185.354C94.8293 185.098 94.4973 184.736 94.2544 184.272C94.0117 183.806 93.8902 183.278 93.8902 182.685ZM98.8603 182.695C98.8603 182.251 98.7711 181.866 98.5925 181.537C98.4141 181.209 98.1712 180.957 97.8641 180.787C97.5642 180.607 97.2322 180.518 96.868 180.518C96.5038 180.518 96.1717 180.604 95.8718 180.775C95.5719 180.947 95.3327 181.197 95.1542 181.525C94.9758 181.856 94.8864 182.241 94.8864 182.685C94.8864 183.134 94.9758 183.528 95.1542 183.864C95.3327 184.193 95.5719 184.446 95.8718 184.625C96.1717 184.796 96.5038 184.883 96.868 184.883C97.2322 184.883 97.5642 184.796 97.8641 184.625C98.1712 184.446 98.4141 184.193 98.5925 183.864C98.7711 183.528 98.8603 183.139 98.8603 182.695ZM104.835 179.661C105.549 179.661 106.127 179.878 106.57 180.314C107.013 180.743 107.234 181.365 107.234 182.181V185.644H106.27V182.32C106.27 181.733 106.124 181.286 105.831 180.979C105.538 180.664 105.138 180.507 104.631 180.507C104.117 180.507 103.707 180.668 103.4 180.989C103.1 181.311 102.95 181.78 102.95 182.395V185.644H101.975V179.768H102.95V180.604C103.142 180.304 103.403 180.071 103.732 179.907C104.067 179.743 104.435 179.661 104.835 179.661ZM112.282 182.685C112.282 182.083 112.403 181.559 112.646 181.108C112.889 180.651 113.221 180.297 113.642 180.046C114.071 179.796 114.546 179.671 115.067 179.671C115.581 179.671 116.027 179.781 116.406 180.004C116.784 180.225 117.066 180.503 117.252 180.84V179.768H118.238V185.644H117.252V184.55C117.059 184.893 116.77 185.18 116.384 185.408C116.006 185.629 115.563 185.741 115.056 185.741C114.535 185.741 114.064 185.612 113.642 185.354C113.221 185.098 112.889 184.736 112.646 184.272C112.403 183.806 112.282 183.278 112.282 182.685ZM117.252 182.695C117.252 182.251 117.163 181.866 116.984 181.537C116.806 181.209 116.563 180.957 116.256 180.787C115.956 180.607 115.624 180.518 115.26 180.518C114.896 180.518 114.564 180.604 114.264 180.775C113.964 180.947 113.724 181.197 113.546 181.525C113.367 181.856 113.278 182.241 113.278 182.685C113.278 183.134 113.367 183.528 113.546 183.864C113.724 184.193 113.964 184.446 114.264 184.625C114.564 184.796 114.896 184.883 115.26 184.883C115.624 184.883 115.956 184.796 116.256 184.625C116.563 184.446 116.806 184.193 116.984 183.864C117.163 183.528 117.252 183.139 117.252 182.695ZM123.227 179.661C123.941 179.661 124.519 179.878 124.962 180.314C125.405 180.743 125.626 181.365 125.626 182.181V185.644H124.662V182.32C124.662 181.733 124.516 181.286 124.223 180.979C123.93 180.664 123.53 180.507 123.023 180.507C122.509 180.507 122.098 180.668 121.791 180.989C121.491 181.311 121.341 181.78 121.341 182.395V185.644H120.367V179.768H121.341V180.604C121.534 180.304 121.795 180.071 122.123 179.907C122.459 179.743 122.827 179.661 123.227 179.661ZM127.336 182.685C127.336 182.083 127.457 181.559 127.7 181.108C127.943 180.651 128.275 180.297 128.696 180.046C129.125 179.796 129.603 179.671 130.132 179.671C130.589 179.671 131.013 179.778 131.406 179.992C131.799 180.2 132.099 180.475 132.306 180.818V177.709H133.291V185.644H132.306V184.54C132.113 184.89 131.827 185.18 131.449 185.408C131.071 185.629 130.628 185.741 130.121 185.741C129.6 185.741 129.125 185.612 128.696 185.354C128.275 185.098 127.943 184.736 127.7 184.272C127.457 183.806 127.336 183.278 127.336 182.685ZM132.306 182.695C132.306 182.251 132.217 181.866 132.038 181.537C131.86 181.209 131.617 180.957 131.31 180.787C131.01 180.607 130.678 180.518 130.314 180.518C129.949 180.518 129.617 180.604 129.318 180.775C129.018 180.947 128.778 181.197 128.6 181.525C128.421 181.856 128.332 182.241 128.332 182.685C128.332 183.134 128.421 183.528 128.6 183.864C128.778 184.193 129.018 184.446 129.318 184.625C129.617 184.796 129.949 184.883 130.314 184.883C130.678 184.883 131.01 184.796 131.31 184.625C131.617 184.446 131.86 184.193 132.038 183.864C132.217 183.528 132.306 183.139 132.306 182.695ZM144.114 182.48C144.114 182.666 144.103 182.862 144.082 183.07H139.39C139.426 183.65 139.622 184.104 139.979 184.432C140.344 184.754 140.783 184.915 141.297 184.915C141.718 184.915 142.068 184.818 142.347 184.625C142.632 184.426 142.832 184.161 142.946 183.831H143.996C143.839 184.396 143.525 184.858 143.054 185.215C142.582 185.565 141.997 185.741 141.297 185.741C140.74 185.741 140.24 185.615 139.797 185.366C139.362 185.114 139.019 184.761 138.769 184.303C138.519 183.839 138.394 183.303 138.394 182.695C138.394 182.087 138.515 181.554 138.758 181.097C139.001 180.639 139.34 180.289 139.776 180.046C140.219 179.796 140.726 179.671 141.297 179.671C141.854 179.671 142.347 179.793 142.775 180.036C143.204 180.279 143.532 180.614 143.761 181.043C143.996 181.465 144.114 181.944 144.114 182.48ZM143.107 182.276C143.107 181.906 143.025 181.587 142.861 181.323C142.696 181.051 142.471 180.847 142.186 180.711C141.907 180.569 141.597 180.497 141.254 180.497C140.761 180.497 140.34 180.654 139.99 180.969C139.647 181.282 139.451 181.72 139.401 182.276H143.107ZM145.518 182.685C145.518 182.083 145.64 181.559 145.883 181.108C146.125 180.651 146.457 180.297 146.879 180.046C147.307 179.796 147.782 179.671 148.303 179.671C148.817 179.671 149.264 179.781 149.642 180.004C150.021 180.225 150.303 180.503 150.488 180.84V179.768H151.474V185.644H150.488V184.55C150.296 184.893 150.006 185.18 149.621 185.408C149.242 185.629 148.8 185.741 148.293 185.741C147.771 185.741 147.3 185.612 146.879 185.354C146.457 185.098 146.125 184.736 145.883 184.272C145.64 183.806 145.518 183.278 145.518 182.685ZM150.488 182.695C150.488 182.251 150.399 181.866 150.221 181.537C150.042 181.209 149.799 180.957 149.492 180.787C149.192 180.607 148.86 180.518 148.496 180.518C148.132 180.518 147.8 180.604 147.5 180.775C147.2 180.947 146.961 181.197 146.782 181.525C146.604 181.856 146.514 182.241 146.514 182.685C146.514 183.134 146.604 183.528 146.782 183.864C146.961 184.193 147.2 184.446 147.5 184.625C147.8 184.796 148.132 184.883 148.496 184.883C148.86 184.883 149.192 184.796 149.492 184.625C149.799 184.446 150.042 184.193 150.221 183.864C150.399 183.528 150.488 183.139 150.488 182.695ZM154.578 180.721C154.749 180.386 154.992 180.125 155.306 179.939C155.627 179.753 156.017 179.661 156.474 179.661V180.668H156.217C155.124 180.668 154.578 181.262 154.578 182.449V185.644H153.603V179.768H154.578V180.721ZM160.941 179.661C161.655 179.661 162.233 179.878 162.676 180.314C163.119 180.743 163.34 181.365 163.34 182.181V185.644H162.376V182.32C162.376 181.733 162.23 181.286 161.937 180.979C161.644 180.664 161.244 180.507 160.737 180.507C160.223 180.507 159.813 180.668 159.505 180.989C159.206 181.311 159.056 181.78 159.056 182.395V185.644H158.081V179.768H159.056V180.604C159.248 180.304 159.509 180.071 159.838 179.907C160.173 179.743 160.541 179.661 160.941 179.661ZM166.678 178.169L166.56 183.531H165.746L165.628 178.169H166.678ZM166.196 185.707C166.011 185.707 165.853 185.644 165.725 185.515C165.596 185.386 165.532 185.23 165.532 185.044C165.532 184.858 165.596 184.7 165.725 184.571C165.853 184.442 166.011 184.379 166.196 184.379C166.375 184.379 166.525 184.442 166.646 184.571C166.775 184.7 166.839 184.858 166.839 185.044C166.839 185.23 166.775 185.386 166.646 185.515C166.525 185.644 166.375 185.707 166.196 185.707Z" fill="black"/>
</svg>
