<svg width="55" height="62" viewBox="0 0 55 62" fill="none" xmlns="http://www.w3.org/2000/svg">
<path d="M38.8582 23.7045C38.8672 20.0367 38.089 16.41 36.5764 13.0711C35.0637 9.73224 32.8522 6.75948 30.0923 4.35509C28.2833 2.75945 29.5223 -0.227119 31.9313 0.0137329C33.5419 0.171623 35.1353 0.473892 36.6922 0.916924C40.8725 2.09996 44.6727 4.35721 47.7174 7.46558C50.7622 10.5739 52.946 14.4258 54.053 18.6406C55.106 22.4676 55.2631 26.487 54.5122 30.385C53.7612 34.2829 52.1225 37.9539 49.724 41.1112C47.3255 44.2685 44.2322 46.8266 40.6857 48.5857C37.1391 50.3448 33.2354 51.2573 29.2793 51.2519C28.2317 51.2527 27.185 51.1924 26.1443 51.0713C23.7624 50.7702 23.1594 47.5759 25.2743 46.4289C33.3773 42.0574 38.8642 33.5283 38.8642 23.7045H38.8582ZM6.71353 16.1388C3.05095 16.1272 -0.57151 16.9041 -3.90948 18.417C-7.24745 19.9299 -10.2233 22.1436 -12.6363 24.9088C-14.2323 26.7152 -17.2172 25.4808 -16.9742 23.0723C-16.8175 21.4607 -16.5163 19.8667 -16.0742 18.3094C-13.6923 9.81038 -6.88233 3.17792 1.64658 0.950043C18.8274 -3.54184 34.2562 9.29857 34.2562 25.7247C34.2562 26.7784 34.1963 27.8321 34.0763 28.8557C33.7763 31.2402 30.5813 31.8423 29.4353 29.7288C27.2235 25.6158 23.9432 22.1807 19.9427 19.7879C15.9421 17.3952 11.3707 16.1342 6.71353 16.1388ZM-0.858391 48.2955C-0.866692 51.9637 -0.087492 55.5907 1.42619 58.9296C2.93986 62.2686 5.15249 65.2411 7.91352 67.6449C9.7225 69.2436 8.48351 72.2271 6.07454 71.9863C4.45548 71.8271 2.85213 71.5351 1.28059 71.1132C-2.89592 69.9241 -6.6922 67.6647 -9.73504 64.5572C-12.7779 61.4497 -14.9625 57.601 -16.0742 53.3895C-17.1272 49.5625 -17.2843 45.5431 -16.5334 41.6451C-15.7824 37.7472 -14.1437 34.0762 -11.7452 30.9189C-9.34674 27.7616 -6.25342 25.2035 -2.70687 23.4444C0.839674 21.6853 4.74344 20.7728 8.69951 20.7782C9.7555 20.7782 10.8115 20.8384 11.8345 20.9588C14.2165 21.2599 14.8194 24.4572 12.7045 25.6012C8.60717 27.7953 5.18111 31.0659 2.79268 35.0633C0.404251 39.0606 -0.859724 43.6344 -0.858391 48.2955ZM31.3013 55.8612C34.9639 55.8728 38.5863 55.0959 41.9243 53.583C45.2623 52.0701 48.2381 49.8564 50.6511 47.0912C52.2411 45.2848 55.229 46.5192 54.986 48.9277C54.8295 50.5403 54.5283 52.1354 54.086 53.6936C51.7011 62.1926 44.8911 68.8221 36.3592 71.053C19.2084 75.5749 3.77956 62.7345 3.77956 46.3084C3.77956 45.2547 3.83956 44.201 3.95956 43.1744C4.25956 40.7929 7.46352 40.1908 8.60651 42.3013C10.8157 46.4067 14.0918 49.835 18.0866 52.222C22.0815 54.609 26.646 55.8656 31.2953 55.8582L31.3013 55.8612Z" fill="#E63535"/>
</svg>
